<?xml version="1.0" encoding="utf-8"?>
<!-- Generator: Adobe Illustrator 21.1.0, SVG Export Plug-In . SVG Version: 6.00 Build 0)  -->
<svg version="1.1" xmlns="http://www.w3.org/2000/svg" xmlns:xlink="http://www.w3.org/1999/xlink" x="0px" y="0px"
	 viewBox="0 0 720 720" style="enable-background:new 0 0 720 720;" xml:space="preserve">
<style type="text/css">
	.st0{display:none;}
	.st1{display:inline;fill:#040006;}
	.st2{fill:#040006;}
	.st3{fill:#FFFFFF;}
</style>
<g id="Ref" class="st0">
	
		<image style="display:inline;overflow:visible;" width="758" height="775" xlink:href="F5ECA85B.jpg"  transform="matrix(0.9466 0 0 0.9466 1.2236 -6.8229)">
	</image>
</g>
<g id="Capa_4" class="st0">
	<rect class="st1" width="720" height="720"/>
</g>
<g id="Capa_2">
	<path class="st2" d="M276.4,389.7l-42.5,30.7l-131.5,40.2c0,0-22.8-2-38.6,19.7c-21.8,30-43.5,158.3-43.5,158.3
		s148.6,69.3,339.8,69.3s337-68.5,337-68.5s-26.7-145.5-48.2-165.4c-17.8-16.4-33.1-13.6-33.1-13.6l-133.1-39.9l-43.3-30.7
		l-5.5-59.1c0,0,11-15.7,15-33.1c3.9-17.3,5.5-26.8,7.1-26.8c0,0,6.6,3.6,9.4,0c4.2-5.3,10.6-26.8,12.4-37.2
		c2.1-12,2.9-32.7-0.1-35.7s-6.6-1.4-6.6-1.4s14.5-85.8-0.8-108.7c-10.4-15.6-13.6-5.1-15.7-11.5c-3-9.3-1.8-16.3-28.3-32.5
		c-37.9-23.3-78.3-15.3-88.8-17.3s-19.5-9-19.5-9s4.4,10.2,14,15.5c2.3,1.3-4.9,2-9-1.5c-5.3-4.5-16-4-16-4s12,4.8,10,8.5
		c-2.1,3.9-21.6,3.3-36.8,14.8c-14.5,11-13,25-18,29.8c-12.1,11.5-14.6,13.4-19.3,23c-10,20.8,3.5,94,3.5,94s-2.5-4-7.5,0
		s-2.8,25.9,1.5,43c5.2,20.5,6,27.5,11,29.5s8,0,8,0s5,21,9,30.5s13,29,13,29L276.4,389.7z"/>
</g>
<g id="Capa_3">
	<path class="st3" d="M276.4,389.7l-15.2,11c0,0-3.7,85.7,0.1,107.8c5.9,34.2,48.3,119.2,54.9,132.4c0.2,0.5,1,0.3,1-0.2l6.8-83.1
		l17.3-33.6c0.6-1.2,0.4-2.7-0.6-3.7l-18.6-18.6c-0.6-0.6-0.7-1.7-0.1-2.3l26-29.4c0.9-1,0.8-2.5-0.2-3.4l-64.6-58.1
		c0,0-6.7-5.7-7-9C276,396.3,276.4,389.7,276.4,389.7z"/>
	<path class="st3" d="M439.8,389.7l15.2,11c0,0,3.7,85.7-0.1,107.8c-5.9,34.2-48.3,119.2-54.9,132.4c-0.2,0.5-1,0.3-1-0.2l-6.8-83.1
		L374.9,524c-0.6-1.2-0.4-2.7,0.6-3.7l18.6-18.6c0.6-0.6,0.7-1.7,0.1-2.3l-26-29.4c-0.9-1-0.8-2.5,0.2-3.4l64.6-58.1
		c0,0,6.7-5.7,7-9C440.2,396.3,439.8,389.7,439.8,389.7z"/>
</g>
</svg>
