<?xml version="1.0" encoding="utf-8"?>
<!-- Generator: Adobe Illustrator 21.1.0, SVG Export Plug-In . SVG Version: 6.00 Build 0)  -->
<svg version="1.1" id="Capa_1" xmlns="http://www.w3.org/2000/svg" xmlns:xlink="http://www.w3.org/1999/xlink" x="0px" y="0px"
	 viewBox="0 0 512 512" style="enable-background:new 0 0 512 512;" xml:space="preserve">
<style type="text/css">
	.st0{fill:#FFFFFF;}
</style>
<path class="st0" d="M331.8,499H180.2c-36.3,0-65.7-29.4-65.7-65.7V78.7c0-36.3,29.4-65.7,65.7-65.7h151.7
	c36.3,0,65.7,29.4,65.7,65.7v354.6C397.5,469.6,368.1,499,331.8,499z M256,437.7c-13.8,0-25,11.1-25,24.7c0,13.6,11.2,24.7,25,24.7
	s25-11.1,25-24.7C281,448.8,269.8,437.7,256,437.7z M124,72.7v343.5h264V72.7H124z"/>
</svg>
