<?xml version="1.0" encoding="utf-8"?>
<!-- Generator: Adobe Illustrator 21.1.0, SVG Export Plug-In . SVG Version: 6.00 Build 0)  -->
<svg version="1.1" id="Capa_1" xmlns="http://www.w3.org/2000/svg" xmlns:xlink="http://www.w3.org/1999/xlink" x="0px" y="0px"
	 viewBox="0 0 512 512" style="enable-background:new 0 0 512 512;" xml:space="preserve">
<style type="text/css">
	.st0{fill:#FFFFFF;}
	.st1{opacity:0.25;fill:none;stroke:#6B6968;stroke-width:12;stroke-miterlimit:10;}
</style>
<g>
	<g>
		<path class="st0" d="M255.6,190.2v-28.9H145.4c0,0-8.6-1.1-14.3,4.8c-6.8,7.1-6.2,9.9-6.2,9.9l0.5,108.3h-63c0,0-8.8-0.2-8.8,7.4
			s6.8,7.9,6.8,7.9H125v108.1c0,0-0.4,4.3,4.5,9.5c5,5.3,9.7,5.1,9.7,5.1h116.3v-29.6l-87.8-50.3l0.7-45.9l30.6,9.9v7.8l56.5,32.3
			l35.3-20.4l-122.7-39.1v-45.9L255.6,190.2z"/>
		<path class="st0" d="M219.8,257.5L343.5,297v45.2l-87.9,50.6v29.6H371c0,0,6.8-0.7,10.5-5.1s4.8-9.2,4.8-9.2V299.7h64.9
			c0,0,7.1-1.8,7.1-7.9c0-6.1-7.5-7.8-7.5-7.8H386V178.7c0,0,1-6.1-3.7-10.5c-4.8-4.4-10.5-6.9-10.5-6.9l-116.1,0.1v28.9l87.9,50.6
			l0.3,46.2l-31.9-10.2v-6.8l-56.3-33L219.8,257.5z"/>
		<path class="st0" d="M247.7,161.4H264V96.8c0,0-1.9-7.1-8.4-7.1s-7.9,7.5-7.9,7.5V161.4z"/>
	</g>
</g>
<polygon class="st1" points="379.7,41.8 132.3,41.8 8.6,256 132.3,470.2 379.7,470.2 503.4,256 "/>
</svg>
