<?xml version="1.0" encoding="utf-8"?>
<!-- Generator: Adobe Illustrator 21.1.0, SVG Export Plug-In . SVG Version: 6.00 Build 0)  -->
<svg version="1.1" id="Capa_1" xmlns="http://www.w3.org/2000/svg" xmlns:xlink="http://www.w3.org/1999/xlink" x="0px" y="0px"
	 viewBox="0 0 24 24" style="enable-background:new 0 0 24 24;" xml:space="preserve">
<style type="text/css">
	.st0{fill:#FFFFFF;}
</style>
<path class="st0" d="M5,0C2.2,0,0,2.2,0,5v14c0,2.8,2.2,5,5,5h14c2.8,0,5-2.2,5-5V5c0-2.8-2.2-5-5-5 M20,19h-3v-5.6c0-3.4-4-3.1-4,0
	V19h-3V8h3v1.8c1.4-2.6,7-2.8,7,2.5V19z M8,19H5V8h3V19z M6.5,6.7c-1,0-1.8-0.8-1.8-1.8s0.8-1.8,1.8-1.8S8.3,4,8.3,5
	S7.5,6.7,6.5,6.7z"/>
</svg>
