<?xml version="1.0" encoding="utf-8"?>
<!-- Generator: Adobe Illustrator 21.1.0, SVG Export Plug-In . SVG Version: 6.00 Build 0)  -->
<svg version="1.1" id="Capa_1" xmlns="http://www.w3.org/2000/svg" xmlns:xlink="http://www.w3.org/1999/xlink" x="0px" y="0px"
	 viewBox="0 0 512 512" style="enable-background:new 0 0 512 512;" xml:space="preserve">
<style type="text/css">
	.st0{opacity:0.25;fill:none;stroke:#6B6968;stroke-width:12;stroke-miterlimit:10;}
	.st1{fill:#FFFFFF;}
</style>
<polygon class="st0" points="379.7,41.8 132.3,41.8 8.6,256 132.3,470.2 379.7,470.2 503.4,256 "/>
<g>
	<g>
		<circle class="st1" cx="237.4" cy="86.2" r="20.4"/>
		<circle class="st1" cx="392.2" cy="355.2" r="33"/>
		<circle class="st1" cx="103.6" cy="355.2" r="14.8"/>
		<path class="st1" d="M237.4,357.4l-86.6-49.7v-44.8l30.6,9.3v8l56,32.1l35.3-20.6l-122-38.6v-45.7l86.6-49.7v-28.9
			c0,0-25.8-1.6-52.9,11c-31.6,14.6-72.4,50.2-75.8,116.4c-3,58.2,36.9,99,73.1,117.4c27.9,14.1,55.6,13,55.6,13V357.4z"/>
		<path class="st1" d="M237.4,203.7l56.1,32.3v6.6l30.3,10.3v-45.2l-86.4-49.9v-28.9c0,0,27.8-2.3,61.8,15.6
			c32.2,17.1,66.8,55.9,66.8,113.2c0,66.9-46.5,103.3-71.2,115.6c-28.6,14.3-57.4,13.3-57.4,13.3v-29.1l87-49.3l-0.3-45.6
			l-121.7-38.9L237.4,203.7z"/>
	</g>
</g>
</svg>
