<?xml version="1.0" encoding="utf-8"?>
<!-- Generator: Adobe Illustrator 21.1.0, SVG Export Plug-In . SVG Version: 6.00 Build 0)  -->
<svg version="1.1" id="Capa_1" xmlns="http://www.w3.org/2000/svg" xmlns:xlink="http://www.w3.org/1999/xlink" x="0px" y="0px"
	 viewBox="0 0 512 512" style="enable-background:new 0 0 512 512;" xml:space="preserve">
<style type="text/css">
	.st0{fill:none;stroke:#FFFFFF;stroke-width:30;stroke-miterlimit:10;}
	.st1{fill:#FFFFFF;}
	.st2{opacity:0.25;fill:none;stroke:#6B6968;stroke-width:12;stroke-miterlimit:10;}
</style>
<g>
	<circle class="st0" cx="256" cy="256" r="180.9"/>
</g>
<path class="st1" d="M240.6,195.1V305c0,0-1.3,5.3,5.2,9.7c2.8,1.9,10.6,3.1,19,0.1c9.4-3.3,21.6-11.3,21.6-11.3V210
	c0,0-1.2-7.3-3.2-12.1c-4.8-12-12.2-17.7-12.2-17.7s7.4,0,11.7,1.7c5.7,2.3,9.2,6.9,9.2,6.9s9.7-12.5,23.6-20.2
	c33.4-18.3,46.6-18.8,46.6-18.8s-17.2,23.6-21.2,30c-5.8,9.2-8.6,17.4-8.6,17.4v113.1c0,0-0.4,2.7,7.2,5.4c9.2,3.2,22.3-3,33.9-11.7
	c11.5-8.6,19.3-17.5,19.3-17.5s-8.8,25.7-36.8,49.8c-24.4,20.9-39.4,26.1-39.4,26.1l-30.3-15.2L256,377.2c0,0-13.2-1.1-26.5-4.6
	c-10.3-2.7-29.1-10.6-34.5-13.7c-21.5-12.2-30.1-27-30.1-27s15.9,2.3,23.3-0.8c7.4-3.1,6.6-7.3,6.6-7.3v-94.2c0,0,0.9-7.3-6.4-9.9
	c-4.9-1.7-21.1,0.3-42.1,26.8c-21.9,27.6-26.8,39.9-26.8,39.9s-3-58.8,49.7-106.9c46.2-42.1,86.9-44.9,86.9-44.9
	s-27.6,17.6-29.9,32.1c-2.6,16.6,4.7,26,7.2,27.3C237.6,196.4,240.6,195.1,240.6,195.1z"/>
<polygon class="st2" points="379.7,41.8 132.3,41.8 8.6,256 132.3,470.2 379.7,470.2 503.4,256 "/>
</svg>
