<?xml version="1.0" encoding="utf-8"?>
<!-- Generator: Adobe Illustrator 21.1.0, SVG Export Plug-In . SVG Version: 6.00 Build 0)  -->
<svg version="1.1" xmlns="http://www.w3.org/2000/svg" xmlns:xlink="http://www.w3.org/1999/xlink" x="0px" y="0px"
	 viewBox="0 0 512 512" style="enable-background:new 0 0 512 512;" xml:space="preserve">
<style type="text/css">
	.st0{display:none;}
	.st1{fill:none;stroke:#33393F;stroke-width:21;stroke-miterlimit:10;}
	.st2{fill:#33393F;}
	.st3{fill:none;stroke:#33393F;stroke-width:11;stroke-miterlimit:10;}
	.st4{fill:none;stroke:#33393F;stroke-width:10;stroke-miterlimit:10;}
</style>
<g id="Ref" class="st0">
	
		<image style="display:inline;overflow:visible;" width="272" height="197" xlink:href="1AF50644.jpg"  transform="matrix(1.8786 0 0 1.8786 0.5156 70.9616)">
	</image>
</g>
<g id="Capa_2">
	<g>
		<path class="st1" d="M483.2,423H28.8c-6.3,0-11.3-5.1-11.3-11.3V100.3c0-6.3,5.1-11.3,11.3-11.3h454.3c6.3,0,11.3,5.1,11.3,11.3
			v311.3C494.5,417.9,489.4,423,483.2,423z"/>
		<g>
			<g>
				<path class="st2" d="M289.7,191.9c38.2,0,76.3,0,114.5,0c5.4,0,10.9,0,16.3,0c6.4,0,6.4-10,0-10c-38.2,0-76.3,0-114.5,0
					c-5.4,0-10.9,0-16.3,0C283.3,181.9,283.3,191.9,289.7,191.9L289.7,191.9z"/>
			</g>
		</g>
		<g>
			<g>
				<path class="st2" d="M289.7,220.9c38.2,0,76.3,0,114.5,0c5.4,0,10.9,0,16.3,0c6.4,0,6.4-10,0-10c-38.2,0-76.3,0-114.5,0
					c-5.4,0-10.9,0-16.3,0C283.3,210.9,283.3,220.9,289.7,220.9L289.7,220.9z"/>
			</g>
		</g>
		<g>
			<g>
				<path class="st2" d="M289.7,250.9c26.3,0,52.5,0,78.8,0c6.4,0,6.4-10,0-10c-26.3,0-52.5,0-78.8,0
					C283.3,240.9,283.3,250.9,289.7,250.9L289.7,250.9z"/>
			</g>
		</g>
		<g>
			<g>
				<path class="st2" d="M337.7,366.9c26.9,0,53.9,0,80.8,0c6.4,0,6.4-10,0-10c-26.9,0-53.9,0-80.8,0
					C331.3,356.9,331.3,366.9,337.7,366.9L337.7,366.9z"/>
			</g>
		</g>
		<g>
			<g>
				<path class="st2" d="M214.7,366.9c26.9,0,53.9,0,80.8,0c6.4,0,6.4-10,0-10c-26.9,0-53.9,0-80.8,0
					C208.3,356.9,208.3,366.9,214.7,366.9L214.7,366.9z"/>
			</g>
		</g>
		<g>
			<g>
				<path class="st2" d="M92.7,366.9c26.9,0,53.9,0,80.8,0c6.4,0,6.4-10,0-10c-26.9,0-53.9,0-80.8,0
					C86.3,356.9,86.3,366.9,92.7,366.9L92.7,366.9z"/>
			</g>
		</g>
		<g>
			<g>
				<path class="st2" d="M231.6,240.9c-40.6,0-81.1,0-121.7,0c-5.7,0-11.5,0-17.2,0c1.7,1.7,3.3,3.3,5,5c0-19.7,0-39.3,0-59
					c-1.7,1.7-3.3,3.3-5,5c40.6,0,81.1,0,121.7,0c5.7,0,11.5,0,17.2,0c-1.7-1.7-3.3-3.3-5-5c0,19.7,0,39.3,0,59c0,6.4,10,6.4,10,0
					c0-19.7,0-39.3,0-59c0-2.7-2.3-5-5-5c-40.6,0-81.1,0-121.7,0c-5.7,0-11.5,0-17.2,0c-2.7,0-5,2.3-5,5c0,19.7,0,39.3,0,59
					c0,2.7,2.3,5,5,5c40.6,0,81.1,0,121.7,0c5.7,0,11.5,0,17.2,0C238,250.9,238,240.9,231.6,240.9z"/>
			</g>
		</g>
		<circle class="st3" cx="133.5" cy="311.3" r="28.6"/>
		<circle class="st3" cx="255.5" cy="311.3" r="28.6"/>
		<circle class="st3" cx="377.5" cy="311.3" r="28.6"/>
		<line class="st4" x1="17.5" y1="138.6" x2="494.5" y2="138.6"/>
	</g>
</g>
</svg>
