<?xml version="1.0" encoding="utf-8"?>
<!-- Generator: Adobe Illustrator 21.1.0, SVG Export Plug-In . SVG Version: 6.00 Build 0)  -->
<svg version="1.1" xmlns="http://www.w3.org/2000/svg" xmlns:xlink="http://www.w3.org/1999/xlink" x="0px" y="0px"
	 viewBox="0 0 512 512" style="enable-background:new 0 0 512 512;" xml:space="preserve">
<style type="text/css">
	.st0{display:none;}
	.st1{fill:none;stroke:#31373D;stroke-width:18.77;stroke-miterlimit:10;}
	.st2{fill:#31373D;}
	.st3{font-family:'Calibri-Italic';}
	.st4{font-size:275px;}
</style>
<g id="Capa_1" class="st0">
	
		<image style="display:inline;overflow:visible;" width="529" height="457" xlink:href="7FCE66FB.jpg"  transform="matrix(1 0 0 1 -8 28)">
	</image>
</g>
<g id="Capa_2">
</g>
<g id="Capa_3">
	<path class="st1" d="M487.3,425H24.7c-5.4,0-9.7-4.4-9.7-9.7V95.7c0-5.4,4.4-9.7,9.7-9.7h462.5c5.4,0,9.7,4.4,9.7,9.7v319.5
		C497,420.6,492.6,425,487.3,425z"/>
	<path class="st2" d="M493.6,149.8H19.9v-61h473.7V149.8z M488.3,97.5H169.2v29.7h319.2V97.5z M43.5,96.5c-8.9,0-16.2,7.2-16.2,16.2
		s7.2,16.2,16.2,16.2s16.2-7.2,16.2-16.2S52.5,96.5,43.5,96.5z M86.5,96.5c-8.9,0-16.2,7.2-16.2,16.2s7.2,16.2,16.2,16.2
		s16.2-7.2,16.2-16.2S95.5,96.5,86.5,96.5z M131.5,96.5c-8.9,0-16.2,7.2-16.2,16.2s7.2,16.2,16.2,16.2s16.2-7.2,16.2-16.2
		S140.5,96.5,131.5,96.5z"/>
	<text transform="matrix(1 0 0 1 65.7309 368.924)" class="st2 st3 st4">&lt;/&gt;</text>
</g>
</svg>
