<?xml version="1.0" encoding="utf-8"?>
<!-- Generator: Adobe Illustrator 21.1.0, SVG Export Plug-In . SVG Version: 6.00 Build 0)  -->
<svg version="1.1" id="Capa_3" xmlns="http://www.w3.org/2000/svg" xmlns:xlink="http://www.w3.org/1999/xlink" x="0px" y="0px"
	 viewBox="0 0 512 512" style="enable-background:new 0 0 512 512;" xml:space="preserve">
<style type="text/css">
	.st0{opacity:0.25;fill:none;stroke:#6B6968;stroke-width:12;stroke-miterlimit:10;}
	.st1{fill:#FFFFFF;}
</style>
<polygon class="st0" points="379.7,41.8 132.3,41.8 8.6,256 132.3,470.2 379.7,470.2 503.4,256 "/>
<g>
	<path class="st1" d="M453.3,256c0,108.9-88.3,197.3-197.3,197.3S58.7,364.9,58.7,256S147.1,58.7,256,58.7S453.3,147.1,453.3,256z
		 M332.9,327c40.1,0,72.1-33.7,72.1-71.3s-30.8-70.6-75.6-70.6s-73.5,44.8-73.5,44.8s-28-44.8-74.3-44.8
		c-54.8,0-74.3,44.8-74.3,70.6s22.8,71.3,69.2,71.3c53.5,0,79.4-43.6,79.4-43.6S283.9,327,332.9,327z"/>
	<path class="st1" d="M242.2,256.1c0,0-19,45.2-62.8,45.2c-33.5,0-47.3-28.8-47.3-45.5c0-15.5,11.8-45.8,47.5-45.8
		C223.4,210,242.2,256.1,242.2,256.1z M204.4,248.7h-44.5v15h44.5V248.7z"/>
	<path class="st1" d="M332.7,210c35.8,0,47.5,30.3,47.5,45.8c0,16.8-13.8,45.5-47.3,45.5c-43.8,0-62.8-45.2-62.8-45.2
		S288.9,210,332.7,210z M306.9,263.7h15v14.5h14v-14.5h15.5v-15h-15.5v-15.5h-14v15.5h-15V263.7z"/>
</g>
</svg>
