<?xml version="1.0" encoding="utf-8"?>
<!-- Generator: Adobe Illustrator 21.1.0, SVG Export Plug-In . SVG Version: 6.00 Build 0)  -->
<svg version="1.1" xmlns="http://www.w3.org/2000/svg" xmlns:xlink="http://www.w3.org/1999/xlink" x="0px" y="0px"
	 viewBox="0 0 512 512" style="enable-background:new 0 0 512 512;" xml:space="preserve">
<style type="text/css">
	.st0{display:none;}
	.st1{fill:#FFFFFF;}
	.st2{opacity:0.25;fill:none;stroke:#6B6968;stroke-width:12;stroke-miterlimit:10;}
	.st3{fill:#040006;}
</style>
<g id="Capa_2" class="st0">
	
		<image style="display:inline;overflow:visible;" width="500" height="500" xlink:href="../../../../../../CV´s/csharp.png"  transform="matrix(1.0047 0 0 1.0047 4.8315 4.8315)">
	</image>
</g>
<g id="Capa_3">
	<path class="st1" d="M89.3,342.8c0,0-0.8-168.9-0.3-175.8c0.8-10.6,9.9-15.6,9.9-15.6s136.6-79,146.7-85.1
		c10.4-6.3,23.5,1.4,23.5,1.4s137.2,79.7,144.4,83.8c8.9,5,9.5,8.5,9.5,8.5L91.5,352.5C91.5,352.5,89.3,351.4,89.3,342.8z
		 M363.5,194.7c0,0-22.3-49.7-92.1-61.5C219,124.4,132,159.3,132,258.3c0,23.5,6.4,43.9,16.9,61l42.2-24.9
		c-6.2-10.1-10.1-22.2-10.1-36.2c0-57.4,48.1-80.3,78.7-77.5c42.3,3.8,61.6,38.4,61.6,38.4L363.5,194.7z"/>
</g>
<g id="Capa_1">
	<polygon class="st2" points="379.7,41.8 132.3,41.8 8.6,256 132.3,470.2 379.7,470.2 503.4,256 	"/>
	<path class="st1" d="M423.5,170.6c0,0,0.8,168.9,0.3,175.8c-0.8,10.6-9.9,15.6-9.9,15.6s-136.6,79-146.7,85.1
		c-10.4,6.3-23.5-1.4-23.5-1.4s-137.2-79.7-144.4-83.8c-8.9-5-9.5-8.5-9.5-8.5l331.5-192.5C421.3,160.8,423.5,161.9,423.5,170.6z
		 M148.8,319.1c26.8,43.9,80.4,65.6,121.4,59.3c70.3-10.8,92.3-62.2,92.3-62.2l-40.1-24.1c0,0-21.8,34.1-60.9,38.6
		c-21.8,2.5-54.1-10-70.3-36.3L148.8,319.1z"/>
	<g>
		<polygon class="st3" points="366.8,215.8 382.3,215.8 366.8,296.8 350.8,296.8 		"/>
		<polygon class="st3" points="393.8,215.8 409.3,215.8 393.8,296.8 377.8,296.8 		"/>
		<rect x="347.5" y="234.5" class="st3" width="65.3" height="15.5"/>
		<rect x="347.5" y="262.5" class="st3" width="65.3" height="15.5"/>
	</g>
</g>
</svg>
