<?xml version="1.0" encoding="utf-8"?>
<!-- Generator: Adobe Illustrator 21.1.0, SVG Export Plug-In . SVG Version: 6.00 Build 0)  -->
<svg version="1.1" xmlns="http://www.w3.org/2000/svg" xmlns:xlink="http://www.w3.org/1999/xlink" x="0px" y="0px"
	 viewBox="0 0 512 512" style="enable-background:new 0 0 512 512;" xml:space="preserve">
<style type="text/css">
	.st0{display:none;}
	.st1{fill:none;stroke:#32383E;stroke-width:17;stroke-miterlimit:10;}
	.st2{fill:#32383E;}
	.st3{fill:none;stroke:#32383E;stroke-width:15;stroke-miterlimit:10;}
</style>
<g id="Capa_1" class="st0">
	
		<image style="display:inline;overflow:visible;" width="268" height="254" xlink:href="35E62EC6.jpg"  transform="matrix(2.0112 0 0 2.0112 -12.775 1.2655)">
	</image>
</g>
<g id="Capa_2">
	<g>
		<path class="st1" d="M210.4,377.8l64.5,18c0,0,29.2,54.7,85.6,54.7s90.8-29,97.7-78.7c10.9-78.3-62.1-103.1-62.1-103.1l-221.7-56
			c0,0-108.1-23.8-121.1,84.1c-7.3,60.9,51.9,107.9,102.9,100.8C192.7,392.5,210.4,377.8,210.4,377.8z"/>
		<path class="st2" d="M178.1,322.7L101,305.5c-1.9-0.4-3.2-2.4-2.7-4.3l6.6-29.5c0.4-1.9,2.4-3.2,4.3-2.7l77.1,17.2
			c1.9,0.4,3.2,2.4,2.7,4.3l-6.6,29.5C182,321.9,180,323.1,178.1,322.7z"/>
		<path class="st2" d="M168.8,261.6L151.9,339c-0.4,1.9-2.3,3.1-4.2,2.7l-27.2-5.9c-1.9-0.4-3.1-2.3-2.7-4.2l16.9-77.4
			c0.4-1.9,2.3-3.1,4.2-2.7l27.2,5.9C168,257.8,169.2,259.7,168.8,261.6z"/>
		<circle class="st2" cx="343.9" cy="346.2" r="20.1"/>
		<circle class="st2" cx="385.9" cy="321.2" r="20.1"/>
		<circle class="st2" cx="368.9" cy="388.2" r="20.1"/>
		<circle class="st2" cx="410.9" cy="363.2" r="20.1"/>
		<path class="st3" d="M215.6,61.5c0,0-20.3,28.6-3.5,54.7c18,27.9,59.3,22.7,81.7,54.5c18.7,26.5-12.2,69.1-12.2,69.1"/>
	</g>
</g>
</svg>
