<?xml version="1.0" encoding="utf-8"?>
<!-- Generator: Adobe Illustrator 21.1.0, SVG Export Plug-In . SVG Version: 6.00 Build 0)  -->
<svg version="1.1" id="Capa_1" xmlns="http://www.w3.org/2000/svg" xmlns:xlink="http://www.w3.org/1999/xlink" x="0px" y="0px"
	 viewBox="0 0 512 512" style="enable-background:new 0 0 512 512;" xml:space="preserve">
<style type="text/css">
	.st0{fill:#AAAAAA;}
	.st1{fill:#ADADAD;}
	.st2{fill:#686868;}
	.st3{fill:#7C7C7C;}
	.st4{fill:#8D8D8D;}
	.st5{fill:#B1B1B1;}
	.st6{fill:#929292;}
	.st7{fill:#AFAFAF;}
	.st8{fill:#494949;}
	.st9{fill:#5D5D5D;}
	.st10{fill:#6D6D6D;}
	.st11{fill:#ABABAB;}
	.st12{fill:#B4B4B4;}
	.st13{opacity:0.25;fill:none;stroke:#6B6968;stroke-width:12;stroke-miterlimit:10;}
</style>
<polygon class="st0" points="187.7,285.5 158.1,251.2 158.1,374 "/>
<polygon class="st1" points="158.1,206.4 254.7,90 93.1,176.1 158.1,251.2 "/>
<polygon class="st2" points="198.5,253.2 158.1,206.4 158.1,251.2 187.7,285.5 "/>
<polygon class="st3" points="254.7,90 158.1,206.4 198.5,253.2 "/>
<polygon class="st4" points="256.2,309.7 254.7,90 198.5,253.2 "/>
<polygon class="st5" points="256.2,365.9 256.2,309.7 198.5,253.2 187.7,285.5 "/>
<polygon class="st6" points="310.2,253.2 254.7,90 256.2,309.7 "/>
<polygon class="st7" points="321.3,288.9 310.2,253.2 256.2,309.7 256.2,365.9 "/>
<polygon class="st8" points="348.9,257.6 348.9,206.4 310.2,253.2 321.3,288.9 "/>
<polygon class="st3" points="254.7,90 310.2,253.2 348.9,206.4 "/>
<polygon class="st9" points="418.9,176.1 348.9,257.6 348.9,206.4 254.7,90 "/>
<polygon class="st10" points="348.9,374 321.3,288.9 348.9,257.6 "/>
<polygon class="st11" points="418.9,374 418.9,176.1 348.9,257.6 348.9,374 "/>
<polygon class="st12" points="158.1,374 158.1,251.2 93.1,176.1 93.1,374 "/>
<polygon class="st13" points="379.7,41.8 132.3,41.8 8.6,256 132.3,470.2 379.7,470.2 503.4,256 "/>
</svg>
