<?xml version="1.0" encoding="utf-8"?>
<!-- Generator: Adobe Illustrator 21.1.0, SVG Export Plug-In . SVG Version: 6.00 Build 0)  -->
<svg version="1.1" id="Capa_1" xmlns="http://www.w3.org/2000/svg" xmlns:xlink="http://www.w3.org/1999/xlink" x="0px" y="0px"
	 viewBox="0 0 512 512" style="enable-background:new 0 0 512 512;" xml:space="preserve">
<style type="text/css">
	.st0{opacity:0.25;fill:none;stroke:#6B6968;stroke-width:12;stroke-miterlimit:10;}
	.st1{fill:#FFFFFF;}
</style>
<polygon class="st0" points="379.7,41.8 132.3,41.8 8.6,256 132.3,470.2 379.7,470.2 503.4,256 "/>
<g>
	<polygon class="st1" points="261.4,255.5 279.7,255.5 341.6,148.7 372.1,255.5 379.2,255.5 400,220.3 362.4,77.4 220.7,115.2 
		199.9,151.7 203.5,158.8 312.2,130.4 248.7,239.1 	"/>
	<polygon class="st1" points="341.3,363.1 372.1,255.5 379.2,255.5 400,293.2 362.4,434.6 220.5,396.4 199.9,359.3 202.5,352.8 
		310.7,380.3 248.8,273.3 261.4,255.5 279.7,255.5 	"/>
	<polygon class="st1" points="53.4,255.5 156.6,358.9 199.9,359.3 202.5,352.8 124.5,273.7 248.8,273.3 261.4,255.5 248.7,239.1 
		124.9,239.1 203.5,158.8 199.9,151.7 157.4,151.7 	"/>
</g>
</svg>
